ffmpeg started on 2016-12-07 at 00:21:10
Report written to "Output/x264/results/ffmpeg/sintelmedium11000k.log"
Command line:
Tools/ffmpeg/ffmpeg -benchmark -y -i Input/y4m/sintel.y4m -c:v libx264 -preset medium -b:v 11000k -an Output/x264/encoded/sintelmedium11000k.mkv
ffmpeg version N-82227-gdb23fde Copyright (c) 2000-2016 the FFmpeg developers
  built with gcc 5.4.0 (Ubuntu 5.4.0-6ubuntu1~16.04.2) 20160609
  configuration: --prefix=/home/jaroslav/ffmpeg_build --pkg-config-flags=--static --extra-cflags=-I/home/jaroslav/ffmpeg_build/include --extra-ldflags=-L/home/jaroslav/ffmpeg_build/lib --bindir=/home/jaroslav/bin --enable-gpl --enable-libass --enable-libfdk-aac --enable-libfreetype --enable-libmp3lame --enable-libopus --enable-libtheora --enable-libvorbis --enable-libvpx --enable-libx264 --enable-libx265 --enable-nvenc --enable-libmfx --enable-libxvid --enable-libgsm --enable-libopencore-amrnb --enable-version3 --enable-nonfree
  libavutil      55. 35.100 / 55. 35.100
  libavcodec     57. 66.101 / 57. 66.101
  libavformat    57. 57.100 / 57. 57.100
  libavdevice    57.  2.100 / 57.  2.100
  libavfilter     6. 66.100 /  6. 66.100
  libswscale      4.  3.100 /  4.  3.100
  libswresample   2.  4.100 /  2.  4.100
  libpostproc    54.  2.100 / 54.  2.100
Input #0, yuv4mpegpipe, from 'Input/y4m/sintel.y4m':
  Duration: 00:00:20.83, start: 0.000000, bitrate: 2057307 kb/s
    Stream #0:0: Video: rawvideo (I420 / 0x30323449), yuv420p(progressive), 4096x1744, SAR 1:1 DAR 256:109, 24 fps, 24 tbr, 24 tbn, 24 tbc
[libx264 @ 0x40731c0] using SAR=1/1
[libx264 @ 0x40731c0] using cpu capabilities: MMX2 SSE2Fast SSSE3 SSE4.2 AVX FMA3 AVX2 LZCNT BMI2
[libx264 @ 0x40731c0] profile High, level 5.1
[libx264 @ 0x40731c0] 264 - core 148 - H.264/MPEG-4 AVC codec - Copyleft 2003-2016 - http://www.videolan.org/x264.html - options: cabac=1 ref=3 deblock=1:0:0 analyse=0x3:0x113 me=hex subme=7 psy=1 psy_rd=1.00:0.00 mixed_ref=1 me_range=16 chroma_me=1 trellis=1 8x8dct=1 cqm=0 deadzone=21,11 fast_pskip=1 chroma_qp_offset=-2 threads=6 lookahead_threads=1 sliced_threads=0 nr=0 decimate=1 interlaced=0 bluray_compat=0 constrained_intra=0 bframes=3 b_pyramid=2 b_adapt=1 b_bias=0 direct=1 weightb=1 open_gop=0 weightp=2 keyint=250 keyint_min=24 scenecut=40 intra_refresh=0 rc_lookahead=40 rc=abr mbtree=1 bitrate=11000 ratetol=1.0 qcomp=0.60 qpmin=0 qpmax=69 qpstep=4 ip_ratio=1.40 aq=1:1.00
Output #0, matroska, to 'Output/x264/encoded/sintelmedium11000k.mkv':
  Metadata:
    encoder         : Lavf57.57.100
    Stream #0:0: Video: h264 (libx264) (H264 / 0x34363248), yuv420p, 4096x1744 [SAR 1:1 DAR 256:109], q=-1--1, 11000 kb/s, 24 fps, 1k tbn, 24 tbc
    Metadata:
      encoder         : Lavc57.66.101 libx264
    Side data:
      cpb: bitrate max/min/avg: 0/0/11000000 buffer size: 0 vbv_delay: -1
Stream mapping:
  Stream #0:0 -> #0:0 (rawvideo (native) -> h264 (libx264))
Press [q] to stop, [?] for help
frame=    9 fps=0.0 q=0.0 size=       0kB time=00:00:00.00 bitrate=N/A speed=   0x    frame=   13 fps= 12 q=0.0 size=       0kB time=00:00:00.00 bitrate=N/A speed=   0x    frame=   22 fps= 14 q=0.0 size=       0kB time=00:00:00.00 bitrate=N/A speed=   0x    frame=   31 fps= 15 q=0.0 size=       0kB time=00:00:00.00 bitrate=N/A speed=   0x    frame=   35 fps=6.3 q=0.0 size=       0kB time=00:00:00.00 bitrate=N/A speed=   0x    frame=   36 fps=4.0 q=0.0 size=       0kB time=00:00:00.00 bitrate=N/A speed=   0x    frame=   37 fps=3.1 q=0.0 size=       0kB time=00:00:00.00 bitrate=N/A speed=   0x    frame=   46 fps=3.7 q=0.0 size=       0kB time=00:00:00.00 bitrate=N/A speed=   0x    frame=   47 fps=3.2 q=0.0 size=       0kB time=00:00:00.00 bitrate=N/A speed=   0x    frame=   50 fps=3.2 q=0.0 size=       0kB time=00:00:00.00 bitrate=N/A speed=   0x    frame=   54 fps=3.3 q=33.0 size=       1kB time=00:00:00.04 bitrate= 136.6kbits/s speed=0.00265x    frame=   57 fps=3.4 q=41.0 size=       1kB time=00:00:00.16 bitrate=  35.0kbits/s speed=0.00989x    frame=   59 fps=3.4 q=42.0 size=       1kB time=00:00:00.25 bitrate=  23.4kbits/s speed=0.0143x    frame=   65 fps=3.5 q=41.0 size=       1kB time=00:00:00.50 bitrate=  11.7kbits/s speed=0.0273x    frame=   70 fps=3.7 q=41.0 size=       1kB time=00:00:00.70 bitrate=   8.3kbits/s speed=0.0375x    frame=   74 fps=3.8 q=41.0 size=       1kB time=00:00:00.87 bitrate=   6.7kbits/s speed=0.0451x    frame=   79 fps=3.9 q=40.0 size=       1kB time=00:00:01.08 bitrate=   5.4kbits/s speed=0.0541x    frame=   84 fps=4.1 q=39.0 size=       1kB time=00:00:01.29 bitrate=   4.5kbits/s speed=0.0628x    frame=   87 fps=4.1 q=39.0 size=       1kB time=00:00:01.41 bitrate=   4.1kbits/s speed=0.0672x    frame=   91 fps=4.2 q=39.0 size=       1kB time=00:00:01.58 bitrate=   3.7kbits/s speed=0.0733x    frame=   96 fps=4.3 q=38.0 size=       1kB time=00:00:01.79 bitrate=   3.3kbits/s speed=0.0809x    frame=  100 fps=4.4 q=38.0 size=       1kB time=00:00:01.95 bitrate=   3.0kbits/s speed=0.0864x    frame=  104 fps=4.5 q=38.0 size=       1kB time=00:00:02.12 bitrate=   2.8kbits/s speed=0.0916x    frame=  107 fps=4.5 q=38.0 size=       1kB time=00:00:02.25 bitrate=   2.6kbits/s speed=0.0948x    frame=  111 fps=4.6 q=38.0 size=       1kB time=00:00:02.41 bitrate=   2.4kbits/s speed=0.0995x    frame=  114 fps=4.6 q=38.0 size=       1kB time=00:00:02.54 bitrate=   2.3kbits/s speed=0.102x    frame=  117 fps=4.6 q=37.0 size=       1kB time=00:00:02.66 bitrate=   2.2kbits/s speed=0.105x    frame=  121 fps=4.7 q=37.0 size=       1kB time=00:00:02.83 bitrate=   2.1kbits/s speed=0.109x    frame=  124 fps=4.7 q=37.0 size=       1kB time=00:00:02.95 bitrate=   2.0kbits/s speed=0.112x    frame=  129 fps=4.8 q=37.0 size=    5125kB time=00:00:03.16 bitrate=13252.4kbits/s speed=0.117x    frame=  132 fps=4.8 q=37.0 size=    5125kB time=00:00:03.29 bitrate=12749.4kbits/s speed=0.119x    frame=  136 fps=4.8 q=36.0 size=    5125kB time=00:00:03.45 bitrate=12137.5kbits/s speed=0.122x    frame=  139 fps=4.8 q=36.0 size=    5125kB time=00:00:03.58 bitrate=11714.2kbits/s speed=0.125x    frame=  143 fps=4.9 q=36.0 size=    5125kB time=00:00:03.75 bitrate=11192.6kbits/s speed=0.128x    frame=  147 fps=4.9 q=36.0 size=    5872kB time=00:00:03.91 bitrate=12278.2kbits/s speed=0.131x    frame=  153 fps=5.0 q=36.0 size=    5872kB time=00:00:04.16 bitrate=11541.7kbits/s speed=0.136x    frame=  159 fps=5.1 q=35.0 size=    5872kB time=00:00:04.41 bitrate=10888.6kbits/s speed=0.141x    frame=  164 fps=5.1 q=35.0 size=    5872kB time=00:00:04.62 bitrate=10399.0kbits/s speed=0.145x    frame=  170 fps=5.2 q=35.0 size=    5872kB time=00:00:04.87 bitrate=9865.9kbits/s speed=0.149x    frame=  173 fps=5.2 q=35.0 size=    5872kB time=00:00:05.00 bitrate=9619.3kbits/s speed=0.151x    frame=  178 fps=5.3 q=35.0 size=    5872kB time=00:00:05.20 bitrate=9235.2kbits/s speed=0.154x    frame=  182 fps=5.3 q=35.0 size=    5872kB time=00:00:05.37 bitrate=8948.3kbits/s speed=0.156x    frame=  187 fps=5.3 q=35.0 size=    5872kB time=00:00:05.58 bitrate=8615.0kbits/s speed=0.159x    frame=  191 fps=5.4 q=35.0 size=    5872kB time=00:00:05.75 bitrate=8364.8kbits/s speed=0.162x    frame=  196 fps=5.4 q=35.0 size=    5872kB time=00:00:05.95 bitrate=8072.8kbits/s speed=0.165x    frame=  201 fps=5.5 q=35.0 size=    5872kB time=00:00:06.16 bitrate=7799.3kbits/s speed=0.167x    frame=  209 fps=5.6 q=35.0 size=    8699kB time=00:00:06.50 bitrate=10961.8kbits/s speed=0.174x    frame=  211 fps=5.6 q=34.0 size=    8699kB time=00:00:06.58 bitrate=10823.6kbits/s speed=0.174x    frame=  216 fps=5.6 q=34.0 size=    8699kB time=00:00:06.79 bitrate=10490.6kbits/s speed=0.176x    frame=  221 fps=5.6 q=34.0 size=    8699kB time=00:00:07.00 bitrate=10178.9kbits/s speed=0.179x    frame=  225 fps=5.7 q=34.0 size=    8699kB time=00:00:07.16 bitrate=9941.8kbits/s speed=0.18x    frame=  229 fps=5.7 q=32.0 size=    8699kB time=00:00:07.33 bitrate=9716.8kbits/s speed=0.182x    frame=  233 fps=5.7 q=34.0 size=    8699kB time=00:00:07.50 bitrate=9500.4kbits/s speed=0.184x    frame=  240 fps=5.8 q=34.0 size=    9928kB time=00:00:07.79 bitrate=10436.2kbits/s speed=0.187x    frame=  246 fps=5.8 q=34.0 size=    9928kB time=00:00:08.04 bitrate=10111.8kbits/s speed=0.191x    frame=  250 fps=5.8 q=34.0 size=    9928kB time=00:00:08.20 bitrate=9907.4kbits/s speed=0.192x    frame=  255 fps=5.9 q=34.0 size=    9928kB time=00:00:08.41 bitrate=9661.4kbits/s speed=0.194x    frame=  259 fps=5.9 q=33.0 size=    9928kB time=00:00:08.58 bitrate=9474.6kbits/s speed=0.195x    frame=  264 fps=5.9 q=33.0 size=    9928kB time=00:00:08.79 bitrate=9249.4kbits/s speed=0.197x    frame=  271 fps=5.9 q=33.0 size=    9928kB time=00:00:09.08 bitrate=8953.1kbits/s speed=0.199x    frame=  279 fps=6.0 q=33.0 size=    9928kB time=00:00:09.41 bitrate=8635.5kbits/s speed=0.203x    frame=  284 fps=6.0 q=33.0 size=    9928kB time=00:00:09.62 bitrate=8448.9kbits/s speed=0.205x    frame=  290 fps=6.1 q=33.0 size=    9928kB time=00:00:09.87 bitrate=8235.1kbits/s speed=0.208x    frame=  297 fps=6.2 q=33.0 size=    9928kB time=00:00:10.16 bitrate=7998.6kbits/s speed=0.211x    frame=  302 fps=6.2 q=33.0 size=    9928kB time=00:00:10.37 bitrate=7838.2kbits/s speed=0.212x    frame=  307 fps=6.2 q=32.0 size=    9928kB time=00:00:10.58 bitrate=7684.2kbits/s speed=0.214x    frame=  308 fps=6.1 q=33.0 size=    9928kB time=00:00:10.62 bitrate=7653.8kbits/s speed=0.211x    frame=  314 fps=6.2 q=32.0 size=    9928kB time=00:00:10.87 bitrate=7477.9kbits/s speed=0.214x    frame=  322 fps=6.2 q=32.0 size=   13526kB time=00:00:11.20 bitrate=9885.5kbits/s speed=0.218x    frame=  330 fps=6.3 q=32.0 size=   13526kB time=00:00:11.54 bitrate=9599.4kbits/s speed=0.221x    frame=  336 fps=6.4 q=32.0 size=   13526kB time=00:00:11.79 bitrate=9395.9kbits/s speed=0.223x    frame=  341 fps=6.4 q=32.0 size=   13526kB time=00:00:12.00 bitrate=9233.1kbits/s speed=0.225x    frame=  346 fps=6.4 q=32.0 size=   13526kB time=00:00:12.20 bitrate=9075.8kbits/s speed=0.226x    frame=  354 fps=6.5 q=31.0 size=   13526kB time=00:00:12.54 bitrate=8834.1kbits/s speed=0.23x    frame=  362 fps=6.6 q=31.0 size=   13526kB time=00:00:12.87 bitrate=8605.6kbits/s speed=0.233x    frame=  370 fps=6.6 q=31.0 size=   13526kB time=00:00:13.20 bitrate=8388.7kbits/s speed=0.236x    frame=  378 fps=6.7 q=30.0 size=   13526kB time=00:00:13.54 bitrate=8181.8kbits/s speed=0.239x    frame=  386 fps=6.7 q=30.0 size=   13526kB time=00:00:13.87 bitrate=7985.5kbits/s speed=0.242x    frame=  393 fps=6.8 q=30.0 size=   13526kB time=00:00:14.16 bitrate=7820.9kbits/s speed=0.245x    frame=  398 fps=6.8 q=30.0 size=   13526kB time=00:00:14.37 bitrate=7707.7kbits/s speed=0.246x    frame=  406 fps=6.9 q=29.0 size=   13526kB time=00:00:14.70 bitrate=7533.2kbits/s speed=0.249x    frame=  413 fps=6.9 q=29.0 size=   17021kB time=00:00:15.00 bitrate=9295.3kbits/s speed=0.252x    frame=  418 fps=6.9 q=29.0 size=   17021kB time=00:00:15.20 bitrate=9168.2kbits/s speed=0.252x    frame=  424 fps=7.0 q=29.0 size=   17021kB time=00:00:15.45 bitrate=9020.0kbits/s speed=0.254x    frame=  428 fps=7.0 q=29.0 size=   17021kB time=00:00:15.62 bitrate=8923.6kbits/s speed=0.255x    frame=  432 fps=7.0 q=29.0 size=   17021kB time=00:00:15.79 bitrate=8829.2kbits/s speed=0.255x    frame=  438 fps=7.0 q=29.0 size=   17021kB time=00:00:16.04 bitrate=8691.6kbits/s speed=0.256x    frame=  445 fps=7.0 q=29.0 size=   17021kB time=00:00:16.33 bitrate=8536.8kbits/s speed=0.257x    frame=  450 fps=7.0 q=29.0 size=   17021kB time=00:00:16.54 bitrate=8428.9kbits/s speed=0.259x    frame=  453 fps=7.0 q=29.0 size=   17021kB time=00:00:16.66 bitrate=8365.7kbits/s speed=0.258x    frame=  457 fps=7.0 q=29.0 size=   17021kB time=00:00:16.83 bitrate=8283.2kbits/s speed=0.259x    frame=  465 fps=7.1 q=29.0 size=   17021kB time=00:00:17.16 bitrate=8122.1kbits/s speed=0.261x    frame=  473 fps=7.1 q=29.0 size=   20088kB time=00:00:17.50 bitrate=9402.7kbits/s speed=0.264x    frame=  475 fps=7.1 q=29.0 size=   20088kB time=00:00:17.58 bitrate=9358.3kbits/s speed=0.263x    frame=  482 fps=7.1 q=29.0 size=   20088kB time=00:00:17.87 bitrate=9205.5kbits/s speed=0.264x    frame=  488 fps=7.1 q=29.0 size=   20088kB time=00:00:18.12 bitrate=9078.5kbits/s speed=0.265x    frame=  492 fps=7.1 q=29.0 size=   20088kB time=00:00:18.29 bitrate=8995.6kbits/s speed=0.265x    frame=  498 fps=7.2 q=29.0 size=   20088kB time=00:00:18.54 bitrate=8874.4kbits/s speed=0.267x    frame=  500 fps=6.8 q=-1.0 Lsize=   24700kB time=00:00:20.70 bitrate=9770.6kbits/s speed=0.28x    
video:24695kB audio:0kB subtitle:0kB other streams:0kB global headers:0kB muxing overhead: 0.019808%
bench: utime=223.820s
bench: maxrss=1574668kB
[libx264 @ 0x40731c0] frame I:8     Avg QP:24.09  size:172007
[libx264 @ 0x40731c0] frame P:269   Avg QP:29.32  size: 61103
[libx264 @ 0x40731c0] frame B:223   Avg QP:27.01  size: 33515
[libx264 @ 0x40731c0] consecutive B-frames: 37.0%  8.4%  6.6% 48.0%
[libx264 @ 0x40731c0] mb I  I16..4: 22.6% 71.6%  5.8%
[libx264 @ 0x40731c0] mb P  I16..4: 18.4% 22.9%  0.5%  P16..4: 26.7%  3.2%  1.0%  0.0%  0.0%    skip:27.3%
[libx264 @ 0x40731c0] mb B  I16..4:  1.4%  2.6%  0.2%  B16..8: 31.9%  2.5%  0.4%  direct: 1.3%  skip:59.6%  L0:42.8% L1:53.8% BI: 3.3%
[libx264 @ 0x40731c0] final ratefactor: 26.15
[libx264 @ 0x40731c0] 8x8 transform intra:56.3% inter:90.4%
[libx264 @ 0x40731c0] coded y,uvDC,uvAC intra: 18.8% 27.2% 2.7% inter: 7.9% 8.0% 0.1%
[libx264 @ 0x40731c0] i16 v,h,dc,p: 27% 31%  8% 35%
[libx264 @ 0x40731c0] i8 v,h,dc,ddl,ddr,vr,hd,vl,hu: 23% 18% 36%  4%  4%  4%  5%  3%  4%
[libx264 @ 0x40731c0] i4 v,h,dc,ddl,ddr,vr,hd,vl,hu: 22% 23% 10%  5% 10%  8% 11%  5%  5%
[libx264 @ 0x40731c0] i8c dc,h,v,p: 71% 14% 13%  2%
[libx264 @ 0x40731c0] Weighted P-Frames: Y:1.1% UV:0.7%
[libx264 @ 0x40731c0] ref P L0: 69.1% 18.6%  9.0%  3.4%  0.0%
[libx264 @ 0x40731c0] ref B L0: 92.9%  5.8%  1.3%
[libx264 @ 0x40731c0] ref B L1: 97.8%  2.2%
[libx264 @ 0x40731c0] kb/s:9710.05
